<svg xmlns="http://www.w3.org/2000/svg" class="icon icon-tabler icon-tabler-signature" width="250px" height="250px" viewBox="0 0 24 24" stroke-width="1.00" stroke="rgba(1, 1, 1, 1)" fill="none" stroke-linecap="round" stroke-linejoin="round"><circle cx="50%" cy="50%" r="50%" stroke="none" stroke-width="0" fill="rgba(255, 255, 255, 1)"/><g transform="translate(2.40, 2.40) scale(0.8)"><path stroke="none" d="M0 0h24v24H0z" fill="none"/><path d="M3 17c3.333 -3.333 5 -6 5 -8c0 -3 -1 -3 -2 -3s-2.032 1.085 -2 3c.034 2.048 1.658 4.877 2.5 6c1.5 2 2.5 2.5 3.5 1l2 -3c.333 2.667 1.333 4 3 4c.53 0 2.639 -2 3 -2c.517 0 1.517 .667 3 2"/></g>
  
  
</svg>